<svg xmlns="http://www.w3.org/2000/svg" viewBox="0 0 640 420" role="img" aria-labelledby="title desc" width="640" height="420">
<title id="title">Char siu — Mise recipe illustration</title><desc id="desc">Overlapping slices of Cantonese-style roast pork with a dark, glossy red-brown edge. This is a stylized illustration, not a photograph of a tested recipe.</desc>
<defs><filter id="pigment" x="-10%" y="-15%" width="120%" height="130%" color-interpolation-filters="sRGB"><feTurbulence type="fractalNoise" baseFrequency=".045 .055" numOctaves="3" seed="19" result="noise" /><feDisplacementMap in="SourceGraphic" in2="noise" scale="3.5" xChannelSelector="R" yChannelSelector="G" result="uneven" /><feGaussianBlur in="uneven" stdDeviation=".3" result="wash" /><feColorMatrix in="noise" type="matrix" values="0 0 0 0 0.25 0 0 0 0 0.3 0 0 0 0 0.34 0 0 0 .15 0" result="grain" /><feComposite in="grain" in2="wash" operator="in" result="pigmentgrain" /><feBlend in="wash" in2="pigmentgrain" mode="multiply" /></filter><filter id="shadow"><feGaussianBlur stdDeviation="8" /></filter></defs><ellipse cx="320" cy="300" rx="164" ry="25" fill="#94a9af" opacity=".12" filter="url(#shadow)" /><g filter="url(#pigment)" opacity="0.9" transform="translate(35 15) scale(.89)"><g><ellipse cx="320" cy="207" rx="210" ry="139" fill="#f2f2ed" stroke="#c0c9ca" stroke-width="1.3" /><ellipse cx="320" cy="207" rx="185" ry="118" fill="none" stroke="#d3dad9" stroke-width="1" /><ellipse cx="320" cy="207" rx="170" ry="105" fill="#f6f5ef" stroke="#c5cecc" stroke-width="1" /><g transform="translate(191.0 182.0) rotate(-18)"><path d="M-20 -43Q6 -56 23 -37L31 45Q2 58 -23 42Z" fill="#ae7957" stroke="#563d2b" stroke-width="3" stroke-linecap="round" stroke-linejoin="round" /><path d="M-14 -38Q7 -42 18 -31L23 37Q3 44 -15 34Z" fill="#c2956d" stroke="#d9aa7c" stroke-width="1.6" stroke-linecap="round" stroke-linejoin="round" /><path d="M-17 -44Q6 -50 23 -36" fill="none" stroke="#ad684a" stroke-width="6" stroke-linecap="round" stroke-linejoin="round" /><path d="M-7 -29Q4 0 -5 32" fill="none" stroke="#edcaa0" stroke-width="3" stroke-linecap="round" stroke-linejoin="round" /></g><g transform="translate(218.0 196.3) rotate(-18)"><path d="M-20 -43Q6 -56 23 -37L31 45Q2 58 -23 42Z" fill="#ae7957" stroke="#563d2b" stroke-width="3" stroke-linecap="round" stroke-linejoin="round" /><path d="M-14 -38Q7 -42 18 -31L23 37Q3 44 -15 34Z" fill="#c2956d" stroke="#d9aa7c" stroke-width="1.6" stroke-linecap="round" stroke-linejoin="round" /><path d="M-17 -44Q6 -50 23 -36" fill="none" stroke="#ad684a" stroke-width="6" stroke-linecap="round" stroke-linejoin="round" /><path d="M-7 -29Q4 0 -5 32" fill="none" stroke="#edcaa0" stroke-width="3" stroke-linecap="round" stroke-linejoin="round" /></g><g transform="translate(245.0 202.0) rotate(-18)"><path d="M-20 -43Q6 -56 23 -37L31 45Q2 58 -23 42Z" fill="#ae7957" stroke="#563d2b" stroke-width="3" stroke-linecap="round" stroke-linejoin="round" /><path d="M-14 -38Q7 -42 18 -31L23 37Q3 44 -15 34Z" fill="#c2956d" stroke="#d9aa7c" stroke-width="1.6" stroke-linecap="round" stroke-linejoin="round" /><path d="M-17 -44Q6 -50 23 -36" fill="none" stroke="#ad684a" stroke-width="6" stroke-linecap="round" stroke-linejoin="round" /><path d="M-7 -29Q4 0 -5 32" fill="none" stroke="#edcaa0" stroke-width="3" stroke-linecap="round" stroke-linejoin="round" /></g><g transform="translate(272.0 195.5) rotate(-18)"><path d="M-20 -43Q6 -56 23 -37L31 45Q2 58 -23 42Z" fill="#ae7957" stroke="#563d2b" stroke-width="3" stroke-linecap="round" stroke-linejoin="round" /><path d="M-14 -38Q7 -42 18 -31L23 37Q3 44 -15 34Z" fill="#c2956d" stroke="#d9aa7c" stroke-width="1.6" stroke-linecap="round" stroke-linejoin="round" /><path d="M-17 -44Q6 -50 23 -36" fill="none" stroke="#ad684a" stroke-width="6" stroke-linecap="round" stroke-linejoin="round" /><path d="M-7 -29Q4 0 -5 32" fill="none" stroke="#edcaa0" stroke-width="3" stroke-linecap="round" stroke-linejoin="round" /></g><g transform="translate(299.0 180.8) rotate(-18)"><path d="M-20 -43Q6 -56 23 -37L31 45Q2 58 -23 42Z" fill="#ae7957" stroke="#563d2b" stroke-width="3" stroke-linecap="round" stroke-linejoin="round" /><path d="M-14 -38Q7 -42 18 -31L23 37Q3 44 -15 34Z" fill="#c2956d" stroke="#d9aa7c" stroke-width="1.6" stroke-linecap="round" stroke-linejoin="round" /><path d="M-17 -44Q6 -50 23 -36" fill="none" stroke="#ad684a" stroke-width="6" stroke-linecap="round" stroke-linejoin="round" /><path d="M-7 -29Q4 0 -5 32" fill="none" stroke="#edcaa0" stroke-width="3" stroke-linecap="round" stroke-linejoin="round" /></g><g transform="translate(326.0 166.9) rotate(-18)"><path d="M-20 -43Q6 -56 23 -37L31 45Q2 58 -23 42Z" fill="#ae7957" stroke="#563d2b" stroke-width="3" stroke-linecap="round" stroke-linejoin="round" /><path d="M-14 -38Q7 -42 18 -31L23 37Q3 44 -15 34Z" fill="#c2956d" stroke="#d9aa7c" stroke-width="1.6" stroke-linecap="round" stroke-linejoin="round" /><path d="M-17 -44Q6 -50 23 -36" fill="none" stroke="#ad684a" stroke-width="6" stroke-linecap="round" stroke-linejoin="round" /><path d="M-7 -29Q4 0 -5 32" fill="none" stroke="#edcaa0" stroke-width="3" stroke-linecap="round" stroke-linejoin="round" /></g><g transform="translate(353.0 162.1) rotate(-18)"><path d="M-20 -43Q6 -56 23 -37L31 45Q2 58 -23 42Z" fill="#ae7957" stroke="#563d2b" stroke-width="3" stroke-linecap="round" stroke-linejoin="round" /><path d="M-14 -38Q7 -42 18 -31L23 37Q3 44 -15 34Z" fill="#c2956d" stroke="#d9aa7c" stroke-width="1.6" stroke-linecap="round" stroke-linejoin="round" /><path d="M-17 -44Q6 -50 23 -36" fill="none" stroke="#ad684a" stroke-width="6" stroke-linecap="round" stroke-linejoin="round" /><path d="M-7 -29Q4 0 -5 32" fill="none" stroke="#edcaa0" stroke-width="3" stroke-linecap="round" stroke-linejoin="round" /></g><g transform="translate(380.0 169.4) rotate(-18)"><path d="M-20 -43Q6 -56 23 -37L31 45Q2 58 -23 42Z" fill="#ae7957" stroke="#563d2b" stroke-width="3" stroke-linecap="round" stroke-linejoin="round" /><path d="M-14 -38Q7 -42 18 -31L23 37Q3 44 -15 34Z" fill="#c2956d" stroke="#d9aa7c" stroke-width="1.6" stroke-linecap="round" stroke-linejoin="round" /><path d="M-17 -44Q6 -50 23 -36" fill="none" stroke="#ad684a" stroke-width="6" stroke-linecap="round" stroke-linejoin="round" /><path d="M-7 -29Q4 0 -5 32" fill="none" stroke="#edcaa0" stroke-width="3" stroke-linecap="round" stroke-linejoin="round" /></g><g transform="translate(407.0 184.3) rotate(-18)"><path d="M-20 -43Q6 -56 23 -37L31 45Q2 58 -23 42Z" fill="#ae7957" stroke="#563d2b" stroke-width="3" stroke-linecap="round" stroke-linejoin="round" /><path d="M-14 -38Q7 -42 18 -31L23 37Q3 44 -15 34Z" fill="#c2956d" stroke="#d9aa7c" stroke-width="1.6" stroke-linecap="round" stroke-linejoin="round" /><path d="M-17 -44Q6 -50 23 -36" fill="none" stroke="#ad684a" stroke-width="6" stroke-linecap="round" stroke-linejoin="round" /><path d="M-7 -29Q4 0 -5 32" fill="none" stroke="#edcaa0" stroke-width="3" stroke-linecap="round" stroke-linejoin="round" /></g><path d="M194 278Q322 299 455 273" fill="none" stroke="#ad684a" stroke-width="5" stroke-linecap="round" stroke-linejoin="round" /></g>
</g></svg>