<svg xmlns="http://www.w3.org/2000/svg" viewBox="0 0 640 420" role="img" aria-labelledby="title desc" width="640" height="420">
<title id="title">Egg fried rice — Mise recipe illustration</title><desc id="desc">Separate rice grains with egg, peas, diced carrots, and scallion rings in a bowl. This is a stylized illustration, not a photograph of a tested recipe.</desc>
<defs><filter id="pigment" x="-10%" y="-15%" width="120%" height="130%" color-interpolation-filters="sRGB"><feTurbulence type="fractalNoise" baseFrequency=".045 .055" numOctaves="3" seed="19" result="noise" /><feDisplacementMap in="SourceGraphic" in2="noise" scale="3.5" xChannelSelector="R" yChannelSelector="G" result="uneven" /><feGaussianBlur in="uneven" stdDeviation=".3" result="wash" /><feColorMatrix in="noise" type="matrix" values="0 0 0 0 0.25 0 0 0 0 0.3 0 0 0 0 0.34 0 0 0 .15 0" result="grain" /><feComposite in="grain" in2="wash" operator="in" result="pigmentgrain" /><feBlend in="wash" in2="pigmentgrain" mode="multiply" /></filter><filter id="shadow"><feGaussianBlur stdDeviation="8" /></filter></defs><ellipse cx="320" cy="300" rx="164" ry="25" fill="#94a9af" opacity=".12" filter="url(#shadow)" /><g filter="url(#pigment)" opacity="0.9" transform="translate(35 15) scale(.89)"><g><ellipse cx="320" cy="215" rx="198" ry="127" fill="#f2f2ed" stroke="#8b9a92" stroke-width="2" /><ellipse cx="320" cy="203" rx="182" ry="107" fill="#8e7c4c" stroke="#9d946d" stroke-width="2" /><path d="M139 218Q174 349 320 347Q468 345 501 218" fill="none" stroke="#eee8d9" stroke-width="2" stroke-linecap="round" stroke-linejoin="round" /><ellipse cx="434.7" cy="184.7" rx="5" ry="1.8" fill="#d9d1b7" stroke="#d9d1b7" stroke-width="0.3" transform="rotate(5 434.7 184.7)" /><ellipse cx="329.4" cy="228.9" rx="5" ry="1.8" fill="#d9d1b7" stroke="#d9d1b7" stroke-width="0.3" transform="rotate(73 329.4 228.9)" /><ellipse cx="413.5" cy="137.7" rx="5" ry="1.8" fill="#d9d1b7" stroke="#d9d1b7" stroke-width="0.3" transform="rotate(23 413.5 137.7)" /><ellipse cx="320.5" cy="143.8" rx="5" ry="1.8" fill="#d9d1b7" stroke="#d9d1b7" stroke-width="0.3" transform="rotate(176 320.5 143.8)" /><ellipse cx="306.5" cy="142.7" rx="5" ry="1.8" fill="#d9d1b7" stroke="#d9d1b7" stroke-width="0.3" transform="rotate(122 306.5 142.7)" /><ellipse cx="300.6" cy="291.1" rx="5" ry="1.8" fill="#d9d1b7" stroke="#d9d1b7" stroke-width="0.3" transform="rotate(83 300.6 291.1)" /><ellipse cx="252.0" cy="155.6" rx="5" ry="1.8" fill="#d9d1b7" stroke="#d9d1b7" stroke-width="0.3" transform="rotate(144 252.0 155.6)" /><ellipse cx="322.6" cy="158.6" rx="5" ry="1.8" fill="#d9d1b7" stroke="#d9d1b7" stroke-width="0.3" transform="rotate(54 322.6 158.6)" /><ellipse cx="198.5" cy="267.1" rx="5" ry="1.8" fill="#d9d1b7" stroke="#d9d1b7" stroke-width="0.3" transform="rotate(88 198.5 267.1)" /><ellipse cx="386.5" cy="210.7" rx="5" ry="1.8" fill="#d9d1b7" stroke="#d9d1b7" stroke-width="0.3" transform="rotate(126 386.5 210.7)" /><ellipse cx="400.8" cy="225.7" rx="5" ry="1.8" fill="#d9d1b7" stroke="#d9d1b7" stroke-width="0.3" transform="rotate(156 400.8 225.7)" /><ellipse cx="411.2" cy="247.5" rx="5" ry="1.8" fill="#d9d1b7" stroke="#d9d1b7" stroke-width="0.3" transform="rotate(110 411.2 247.5)" /><ellipse cx="167.6" cy="188.8" rx="5" ry="1.8" fill="#d9d1b7" stroke="#d9d1b7" stroke-width="0.3" transform="rotate(95 167.6 188.8)" /><ellipse cx="243.9" cy="286.0" rx="5" ry="1.8" fill="#d9d1b7" stroke="#d9d1b7" stroke-width="0.3" transform="rotate(130 243.9 286.0)" /><ellipse cx="405.5" cy="155.5" rx="5" ry="1.8" fill="#d9d1b7" stroke="#d9d1b7" stroke-width="0.3" transform="rotate(105 405.5 155.5)" /><ellipse cx="179.4" cy="168.9" rx="5" ry="1.8" fill="#d9d1b7" stroke="#d9d1b7" stroke-width="0.3" transform="rotate(101 179.4 168.9)" /><ellipse cx="210.7" cy="153.0" rx="5" ry="1.8" fill="#d9d1b7" stroke="#d9d1b7" stroke-width="0.3" transform="rotate(45 210.7 153.0)" /><ellipse cx="359.8" cy="141.5" rx="5" ry="1.8" fill="#d9d1b7" stroke="#d9d1b7" stroke-width="0.3" transform="rotate(75 359.8 141.5)" /><ellipse cx="346.9" cy="107.4" rx="5" ry="1.8" fill="#d9d1b7" stroke="#d9d1b7" stroke-width="0.3" transform="rotate(72 346.9 107.4)" /><ellipse cx="294.9" cy="261.7" rx="5" ry="1.8" fill="#d9d1b7" stroke="#d9d1b7" stroke-width="0.3" transform="rotate(165 294.9 261.7)" /><ellipse cx="433.7" cy="141.9" rx="5" ry="1.8" fill="#d9d1b7" stroke="#d9d1b7" stroke-width="0.3" transform="rotate(145 433.7 141.9)" /><ellipse cx="382.3" cy="119.0" rx="5" ry="1.8" fill="#d9d1b7" stroke="#d9d1b7" stroke-width="0.3" transform="rotate(53 382.3 119.0)" /><ellipse cx="388.9" cy="188.2" rx="5" ry="1.8" fill="#d9d1b7" stroke="#d9d1b7" stroke-width="0.3" transform="rotate(177 388.9 188.2)" /><ellipse cx="400.6" cy="225.8" rx="5" ry="1.8" fill="#d9d1b7" stroke="#d9d1b7" stroke-width="0.3" transform="rotate(92 400.6 225.8)" /><ellipse cx="382.9" cy="255.6" rx="5" ry="1.8" fill="#d9d1b7" stroke="#d9d1b7" stroke-width="0.3" transform="rotate(116 382.9 255.6)" /><ellipse cx="426.9" cy="181.5" rx="5" ry="1.8" fill="#d9d1b7" stroke="#d9d1b7" stroke-width="0.3" transform="rotate(27 426.9 181.5)" /><ellipse cx="316.0" cy="226.8" rx="5" ry="1.8" fill="#d9d1b7" stroke="#d9d1b7" stroke-width="0.3" transform="rotate(55 316.0 226.8)" /><ellipse cx="383.7" cy="134.7" rx="5" ry="1.8" fill="#d9d1b7" stroke="#d9d1b7" stroke-width="0.3" transform="rotate(69 383.7 134.7)" /><ellipse cx="305.1" cy="290.5" rx="5" ry="1.8" fill="#d9d1b7" stroke="#d9d1b7" stroke-width="0.3" transform="rotate(34 305.1 290.5)" /><ellipse cx="452.1" cy="237.4" rx="5" ry="1.8" fill="#d9d1b7" stroke="#d9d1b7" stroke-width="0.3" transform="rotate(138 452.1 237.4)" /><ellipse cx="195.9" cy="244.2" rx="5" ry="1.8" fill="#d9d1b7" stroke="#d9d1b7" stroke-width="0.3" transform="rotate(74 195.9 244.2)" /><ellipse cx="249.8" cy="256.8" rx="5" ry="1.8" fill="#d9d1b7" stroke="#d9d1b7" stroke-width="0.3" transform="rotate(155 249.8 256.8)" /><ellipse cx="314.4" cy="186.7" rx="5" ry="1.8" fill="#d9d1b7" stroke="#d9d1b7" stroke-width="0.3" transform="rotate(102 314.4 186.7)" /><ellipse cx="357.7" cy="173.5" rx="5" ry="1.8" fill="#d9d1b7" stroke="#d9d1b7" stroke-width="0.3" transform="rotate(154 357.7 173.5)" /><ellipse cx="250.1" cy="286.5" rx="5" ry="1.8" fill="#d9d1b7" stroke="#d9d1b7" stroke-width="0.3" transform="rotate(39 250.1 286.5)" /><ellipse cx="271.5" cy="240.3" rx="5" ry="1.8" fill="#d9d1b7" stroke="#d9d1b7" stroke-width="0.3" transform="rotate(115 271.5 240.3)" /><ellipse cx="383.2" cy="120.8" rx="5" ry="1.8" fill="#d9d1b7" stroke="#d9d1b7" stroke-width="0.3" transform="rotate(16 383.2 120.8)" /><ellipse cx="393.5" cy="119.2" rx="5" ry="1.8" fill="#d9d1b7" stroke="#d9d1b7" stroke-width="0.3" transform="rotate(60 393.5 119.2)" /><ellipse cx="352.1" cy="161.0" rx="5" ry="1.8" fill="#d9d1b7" stroke="#d9d1b7" stroke-width="0.3" transform="rotate(4 352.1 161.0)" /><ellipse cx="224.4" cy="213.6" rx="5" ry="1.8" fill="#d9d1b7" stroke="#d9d1b7" stroke-width="0.3" transform="rotate(152 224.4 213.6)" /><ellipse cx="398.5" cy="270.1" rx="5" ry="1.8" fill="#d9d1b7" stroke="#d9d1b7" stroke-width="0.3" transform="rotate(159 398.5 270.1)" /><ellipse cx="298.1" cy="164.5" rx="5" ry="1.8" fill="#d9d1b7" stroke="#d9d1b7" stroke-width="0.3" transform="rotate(48 298.1 164.5)" /><ellipse cx="237.8" cy="275.0" rx="5" ry="1.8" fill="#d9d1b7" stroke="#d9d1b7" stroke-width="0.3" transform="rotate(6 237.8 275.0)" /><ellipse cx="351.1" cy="259.2" rx="5" ry="1.8" fill="#d9d1b7" stroke="#d9d1b7" stroke-width="0.3" transform="rotate(38 351.1 259.2)" /><ellipse cx="427.4" cy="267.8" rx="5" ry="1.8" fill="#d9d1b7" stroke="#d9d1b7" stroke-width="0.3" transform="rotate(10 427.4 267.8)" /><ellipse cx="385.7" cy="189.7" rx="5" ry="1.8" fill="#d9d1b7" stroke="#d9d1b7" stroke-width="0.3" transform="rotate(95 385.7 189.7)" /><ellipse cx="323.0" cy="169.7" rx="5" ry="1.8" fill="#d9d1b7" stroke="#d9d1b7" stroke-width="0.3" transform="rotate(62 323.0 169.7)" /><ellipse cx="273.9" cy="199.3" rx="5" ry="1.8" fill="#d9d1b7" stroke="#d9d1b7" stroke-width="0.3" transform="rotate(113 273.9 199.3)" /><ellipse cx="257.4" cy="137.8" rx="5" ry="1.8" fill="#d9d1b7" stroke="#d9d1b7" stroke-width="0.3" transform="rotate(83 257.4 137.8)" /><ellipse cx="469.1" cy="224.7" rx="5" ry="1.8" fill="#d9d1b7" stroke="#d9d1b7" stroke-width="0.3" transform="rotate(113 469.1 224.7)" /><ellipse cx="268.1" cy="192.7" rx="5" ry="1.8" fill="#d9d1b7" stroke="#d9d1b7" stroke-width="0.3" transform="rotate(74 268.1 192.7)" /><ellipse cx="219.2" cy="231.5" rx="5" ry="1.8" fill="#d9d1b7" stroke="#d9d1b7" stroke-width="0.3" transform="rotate(28 219.2 231.5)" /><ellipse cx="230.9" cy="130.1" rx="5" ry="1.8" fill="#d9d1b7" stroke="#d9d1b7" stroke-width="0.3" transform="rotate(132 230.9 130.1)" /><ellipse cx="444.2" cy="155.4" rx="5" ry="1.8" fill="#d9d1b7" stroke="#d9d1b7" stroke-width="0.3" transform="rotate(78 444.2 155.4)" /><ellipse cx="223.1" cy="187.9" rx="5" ry="1.8" fill="#d9d1b7" stroke="#d9d1b7" stroke-width="0.3" transform="rotate(127 223.1 187.9)" /><ellipse cx="235.2" cy="245.9" rx="5" ry="1.8" fill="#d9d1b7" stroke="#d9d1b7" stroke-width="0.3" transform="rotate(147 235.2 245.9)" /><ellipse cx="295.4" cy="242.3" rx="5" ry="1.8" fill="#d9d1b7" stroke="#d9d1b7" stroke-width="0.3" transform="rotate(176 295.4 242.3)" /><ellipse cx="319.7" cy="172.2" rx="5" ry="1.8" fill="#d9d1b7" stroke="#d9d1b7" stroke-width="0.3" transform="rotate(11 319.7 172.2)" /><ellipse cx="237.9" cy="253.1" rx="5" ry="1.8" fill="#d9d1b7" stroke="#d9d1b7" stroke-width="0.3" transform="rotate(167 237.9 253.1)" /><ellipse cx="332.7" cy="177.3" rx="5" ry="1.8" fill="#d9d1b7" stroke="#d9d1b7" stroke-width="0.3" transform="rotate(140 332.7 177.3)" /><ellipse cx="219.4" cy="228.2" rx="5" ry="1.8" fill="#d9d1b7" stroke="#d9d1b7" stroke-width="0.3" transform="rotate(79 219.4 228.2)" /><ellipse cx="152.7" cy="178.9" rx="5" ry="1.8" fill="#d9d1b7" stroke="#d9d1b7" stroke-width="0.3" transform="rotate(72 152.7 178.9)" /><ellipse cx="275.8" cy="166.7" rx="5" ry="1.8" fill="#d9d1b7" stroke="#d9d1b7" stroke-width="0.3" transform="rotate(128 275.8 166.7)" /><ellipse cx="390.3" cy="170.8" rx="5" ry="1.8" fill="#d9d1b7" stroke="#d9d1b7" stroke-width="0.3" transform="rotate(128 390.3 170.8)" /><ellipse cx="171.8" cy="159.5" rx="5" ry="1.8" fill="#d9d1b7" stroke="#d9d1b7" stroke-width="0.3" transform="rotate(86 171.8 159.5)" /><ellipse cx="347.0" cy="298.2" rx="5" ry="1.8" fill="#d9d1b7" stroke="#d9d1b7" stroke-width="0.3" transform="rotate(168 347.0 298.2)" /><ellipse cx="463.4" cy="216.5" rx="5" ry="1.8" fill="#d9d1b7" stroke="#d9d1b7" stroke-width="0.3" transform="rotate(134 463.4 216.5)" /><ellipse cx="388.3" cy="241.6" rx="5" ry="1.8" fill="#d9d1b7" stroke="#d9d1b7" stroke-width="0.3" transform="rotate(112 388.3 241.6)" /><ellipse cx="304.2" cy="170.0" rx="5" ry="1.8" fill="#d9d1b7" stroke="#d9d1b7" stroke-width="0.3" transform="rotate(147 304.2 170.0)" /><ellipse cx="385.9" cy="115.7" rx="5" ry="1.8" fill="#d9d1b7" stroke="#d9d1b7" stroke-width="0.3" transform="rotate(93 385.9 115.7)" /><ellipse cx="262.4" cy="205.1" rx="5" ry="1.8" fill="#d9d1b7" stroke="#d9d1b7" stroke-width="0.3" transform="rotate(174 262.4 205.1)" /><ellipse cx="302.5" cy="193.4" rx="5" ry="1.8" fill="#d9d1b7" stroke="#d9d1b7" stroke-width="0.3" transform="rotate(128 302.5 193.4)" /><ellipse cx="246.1" cy="186.3" rx="5" ry="1.8" fill="#d9d1b7" stroke="#d9d1b7" stroke-width="0.3" transform="rotate(43 246.1 186.3)" /><ellipse cx="327.3" cy="111.0" rx="5" ry="1.8" fill="#d9d1b7" stroke="#d9d1b7" stroke-width="0.3" transform="rotate(180 327.3 111.0)" /><ellipse cx="225.8" cy="123.0" rx="5" ry="1.8" fill="#d9d1b7" stroke="#d9d1b7" stroke-width="0.3" transform="rotate(167 225.8 123.0)" /><ellipse cx="450.3" cy="256.3" rx="5" ry="1.8" fill="#d9d1b7" stroke="#d9d1b7" stroke-width="0.3" transform="rotate(139 450.3 256.3)" /><ellipse cx="215.5" cy="148.9" rx="5" ry="1.8" fill="#d9d1b7" stroke="#d9d1b7" stroke-width="0.3" transform="rotate(47 215.5 148.9)" /><ellipse cx="430.8" cy="183.3" rx="5" ry="1.8" fill="#d9d1b7" stroke="#d9d1b7" stroke-width="0.3" transform="rotate(55 430.8 183.3)" /><ellipse cx="366.0" cy="155.4" rx="5" ry="1.8" fill="#d9d1b7" stroke="#d9d1b7" stroke-width="0.3" transform="rotate(86 366.0 155.4)" /><ellipse cx="281.1" cy="246.9" rx="5" ry="1.8" fill="#d9d1b7" stroke="#d9d1b7" stroke-width="0.3" transform="rotate(167 281.1 246.9)" /><ellipse cx="231.2" cy="144.6" rx="5" ry="1.8" fill="#d9d1b7" stroke="#d9d1b7" stroke-width="0.3" transform="rotate(68 231.2 144.6)" /><ellipse cx="432.8" cy="213.1" rx="5" ry="1.8" fill="#d9d1b7" stroke="#d9d1b7" stroke-width="0.3" transform="rotate(178 432.8 213.1)" /><ellipse cx="303.5" cy="225.3" rx="5" ry="1.8" fill="#d9d1b7" stroke="#d9d1b7" stroke-width="0.3" transform="rotate(39 303.5 225.3)" /><ellipse cx="358.4" cy="125.0" rx="5" ry="1.8" fill="#d9d1b7" stroke="#d9d1b7" stroke-width="0.3" transform="rotate(91 358.4 125.0)" /><ellipse cx="279.5" cy="196.7" rx="5" ry="1.8" fill="#d9d1b7" stroke="#d9d1b7" stroke-width="0.3" transform="rotate(115 279.5 196.7)" /><ellipse cx="400.4" cy="207.0" rx="5" ry="1.8" fill="#d9d1b7" stroke="#d9d1b7" stroke-width="0.3" transform="rotate(9 400.4 207.0)" /><ellipse cx="350.7" cy="284.9" rx="5" ry="1.8" fill="#d9d1b7" stroke="#d9d1b7" stroke-width="0.3" transform="rotate(161 350.7 284.9)" /><ellipse cx="317.2" cy="205.2" rx="5" ry="1.8" fill="#d9d1b7" stroke="#d9d1b7" stroke-width="0.3" transform="rotate(142 317.2 205.2)" /><ellipse cx="240.6" cy="281.7" rx="5" ry="1.8" fill="#d9d1b7" stroke="#d9d1b7" stroke-width="0.3" transform="rotate(12 240.6 281.7)" /><ellipse cx="358.5" cy="197.6" rx="5" ry="1.8" fill="#d9d1b7" stroke="#d9d1b7" stroke-width="0.3" transform="rotate(91 358.5 197.6)" /><ellipse cx="356.3" cy="222.5" rx="5" ry="1.8" fill="#d9d1b7" stroke="#d9d1b7" stroke-width="0.3" transform="rotate(11 356.3 222.5)" /><ellipse cx="398.5" cy="163.1" rx="5" ry="1.8" fill="#d9d1b7" stroke="#d9d1b7" stroke-width="0.3" transform="rotate(83 398.5 163.1)" /><ellipse cx="345.8" cy="151.1" rx="5" ry="1.8" fill="#d9d1b7" stroke="#d9d1b7" stroke-width="0.3" transform="rotate(133 345.8 151.1)" /><ellipse cx="386.8" cy="243.2" rx="5" ry="1.8" fill="#d9d1b7" stroke="#d9d1b7" stroke-width="0.3" transform="rotate(163 386.8 243.2)" /><ellipse cx="434.9" cy="210.9" rx="5" ry="1.8" fill="#d9d1b7" stroke="#d9d1b7" stroke-width="0.3" transform="rotate(28 434.9 210.9)" /><ellipse cx="222.0" cy="229.9" rx="5" ry="1.8" fill="#d9d1b7" stroke="#d9d1b7" stroke-width="0.3" transform="rotate(168 222.0 229.9)" /><ellipse cx="235.2" cy="193.2" rx="5" ry="1.8" fill="#d9d1b7" stroke="#d9d1b7" stroke-width="0.3" transform="rotate(170 235.2 193.2)" /><ellipse cx="474.1" cy="244.0" rx="5" ry="1.8" fill="#d9d1b7" stroke="#d9d1b7" stroke-width="0.3" transform="rotate(39 474.1 244.0)" /><ellipse cx="319.5" cy="132.2" rx="5" ry="1.8" fill="#d9d1b7" stroke="#d9d1b7" stroke-width="0.3" transform="rotate(131 319.5 132.2)" /><ellipse cx="198.7" cy="191.6" rx="5" ry="1.8" fill="#d9d1b7" stroke="#d9d1b7" stroke-width="0.3" transform="rotate(44 198.7 191.6)" /><ellipse cx="425.0" cy="207.9" rx="5" ry="1.8" fill="#d9d1b7" stroke="#d9d1b7" stroke-width="0.3" transform="rotate(78 425.0 207.9)" /><ellipse cx="400.1" cy="242.2" rx="5" ry="1.8" fill="#d9d1b7" stroke="#d9d1b7" stroke-width="0.3" transform="rotate(5 400.1 242.2)" /><ellipse cx="315.0" cy="252.3" rx="5" ry="1.8" fill="#d9d1b7" stroke="#d9d1b7" stroke-width="0.3" transform="rotate(149 315.0 252.3)" /><ellipse cx="244.5" cy="256.2" rx="5" ry="1.8" fill="#d9d1b7" stroke="#d9d1b7" stroke-width="0.3" transform="rotate(49 244.5 256.2)" /><ellipse cx="265.2" cy="173.1" rx="5" ry="1.8" fill="#d9d1b7" stroke="#d9d1b7" stroke-width="0.3" transform="rotate(21 265.2 173.1)" /><ellipse cx="445.9" cy="225.3" rx="5" ry="1.8" fill="#d9d1b7" stroke="#d9d1b7" stroke-width="0.3" transform="rotate(37 445.9 225.3)" /><ellipse cx="276.3" cy="221.3" rx="5" ry="1.8" fill="#d9d1b7" stroke="#d9d1b7" stroke-width="0.3" transform="rotate(98 276.3 221.3)" /><ellipse cx="246.7" cy="249.6" rx="5" ry="1.8" fill="#d9d1b7" stroke="#d9d1b7" stroke-width="0.3" transform="rotate(165 246.7 249.6)" /><ellipse cx="261.2" cy="178.4" rx="5" ry="1.8" fill="#d9d1b7" stroke="#d9d1b7" stroke-width="0.3" transform="rotate(30 261.2 178.4)" /><ellipse cx="286.9" cy="247.5" rx="5" ry="1.8" fill="#d9d1b7" stroke="#d9d1b7" stroke-width="0.3" transform="rotate(139 286.9 247.5)" /><ellipse cx="214.1" cy="265.3" rx="5" ry="1.8" fill="#d9d1b7" stroke="#d9d1b7" stroke-width="0.3" transform="rotate(84 214.1 265.3)" /><ellipse cx="263.5" cy="273.5" rx="5" ry="1.8" fill="#d9d1b7" stroke="#d9d1b7" stroke-width="0.3" transform="rotate(166 263.5 273.5)" /><ellipse cx="228.5" cy="209.1" rx="5" ry="1.8" fill="#d9d1b7" stroke="#d9d1b7" stroke-width="0.3" transform="rotate(149 228.5 209.1)" /><ellipse cx="179.7" cy="225.6" rx="5" ry="1.8" fill="#d9d1b7" stroke="#d9d1b7" stroke-width="0.3" transform="rotate(38 179.7 225.6)" /><ellipse cx="342.3" cy="115.1" rx="5" ry="1.8" fill="#d9d1b7" stroke="#d9d1b7" stroke-width="0.3" transform="rotate(114 342.3 115.1)" /><ellipse cx="209.6" cy="203.9" rx="5" ry="1.8" fill="#d9d1b7" stroke="#d9d1b7" stroke-width="0.3" transform="rotate(108 209.6 203.9)" /><ellipse cx="147.2" cy="204.6" rx="5" ry="1.8" fill="#d9d1b7" stroke="#d9d1b7" stroke-width="0.3" transform="rotate(17 147.2 204.6)" /><ellipse cx="356.7" cy="288.7" rx="5" ry="1.8" fill="#d9d1b7" stroke="#d9d1b7" stroke-width="0.3" transform="rotate(117 356.7 288.7)" /><ellipse cx="155.7" cy="175.0" rx="5" ry="1.8" fill="#d9d1b7" stroke="#d9d1b7" stroke-width="0.3" transform="rotate(23 155.7 175.0)" /><ellipse cx="217.5" cy="219.6" rx="5" ry="1.8" fill="#d9d1b7" stroke="#d9d1b7" stroke-width="0.3" transform="rotate(43 217.5 219.6)" /><ellipse cx="429.0" cy="234.7" rx="5" ry="1.8" fill="#d9d1b7" stroke="#d9d1b7" stroke-width="0.3" transform="rotate(143 429.0 234.7)" /><ellipse cx="217.8" cy="163.9" rx="5" ry="1.8" fill="#d9d1b7" stroke="#d9d1b7" stroke-width="0.3" transform="rotate(77 217.8 163.9)" /><ellipse cx="444.5" cy="178.7" rx="5" ry="1.8" fill="#d9d1b7" stroke="#d9d1b7" stroke-width="0.3" transform="rotate(139 444.5 178.7)" /><ellipse cx="171.4" cy="220.3" rx="5" ry="1.8" fill="#d9d1b7" stroke="#d9d1b7" stroke-width="0.3" transform="rotate(2 171.4 220.3)" /><ellipse cx="382.6" cy="288.2" rx="5" ry="1.8" fill="#d9d1b7" stroke="#d9d1b7" stroke-width="0.3" transform="rotate(38 382.6 288.2)" /><ellipse cx="400.8" cy="253.3" rx="5" ry="1.8" fill="#d9d1b7" stroke="#d9d1b7" stroke-width="0.3" transform="rotate(90 400.8 253.3)" /><ellipse cx="369.5" cy="178.4" rx="5" ry="1.8" fill="#d9d1b7" stroke="#d9d1b7" stroke-width="0.3" transform="rotate(119 369.5 178.4)" /><ellipse cx="327.4" cy="299.1" rx="5" ry="1.8" fill="#d9d1b7" stroke="#d9d1b7" stroke-width="0.3" transform="rotate(101 327.4 299.1)" /><ellipse cx="264.5" cy="272.2" rx="5" ry="1.8" fill="#d9d1b7" stroke="#d9d1b7" stroke-width="0.3" transform="rotate(13 264.5 272.2)" /><ellipse cx="363.3" cy="273.8" rx="5" ry="1.8" fill="#d9d1b7" stroke="#d9d1b7" stroke-width="0.3" transform="rotate(140 363.3 273.8)" /><ellipse cx="396.7" cy="231.4" rx="5" ry="1.8" fill="#d9d1b7" stroke="#d9d1b7" stroke-width="0.3" transform="rotate(157 396.7 231.4)" /><ellipse cx="321.1" cy="120.1" rx="5" ry="1.8" fill="#d9d1b7" stroke="#d9d1b7" stroke-width="0.3" transform="rotate(109 321.1 120.1)" /><ellipse cx="439.1" cy="221.3" rx="5" ry="1.8" fill="#d9d1b7" stroke="#d9d1b7" stroke-width="0.3" transform="rotate(123 439.1 221.3)" /><ellipse cx="257.8" cy="256.6" rx="5" ry="1.8" fill="#d9d1b7" stroke="#d9d1b7" stroke-width="0.3" transform="rotate(54 257.8 256.6)" /><ellipse cx="404.2" cy="130.2" rx="5" ry="1.8" fill="#d9d1b7" stroke="#d9d1b7" stroke-width="0.3" transform="rotate(128 404.2 130.2)" /><ellipse cx="332.8" cy="208.6" rx="5" ry="1.8" fill="#d9d1b7" stroke="#d9d1b7" stroke-width="0.3" transform="rotate(93 332.8 208.6)" /><ellipse cx="453.7" cy="202.0" rx="5" ry="1.8" fill="#d9d1b7" stroke="#d9d1b7" stroke-width="0.3" transform="rotate(52 453.7 202.0)" /><ellipse cx="305.5" cy="170.9" rx="5" ry="1.8" fill="#d9d1b7" stroke="#d9d1b7" stroke-width="0.3" transform="rotate(63 305.5 170.9)" /><ellipse cx="265.5" cy="179.8" rx="5" ry="1.8" fill="#d9d1b7" stroke="#d9d1b7" stroke-width="0.3" transform="rotate(91 265.5 179.8)" /><ellipse cx="435.3" cy="252.6" rx="5" ry="1.8" fill="#d9d1b7" stroke="#d9d1b7" stroke-width="0.3" transform="rotate(98 435.3 252.6)" /><ellipse cx="202.8" cy="222.3" rx="5" ry="1.8" fill="#d9d1b7" stroke="#d9d1b7" stroke-width="0.3" transform="rotate(21 202.8 222.3)" /><ellipse cx="471.1" cy="157.8" rx="5" ry="1.8" fill="#d9d1b7" stroke="#d9d1b7" stroke-width="0.3" transform="rotate(3 471.1 157.8)" /><ellipse cx="380.1" cy="221.1" rx="5" ry="1.8" fill="#d9d1b7" stroke="#d9d1b7" stroke-width="0.3" transform="rotate(177 380.1 221.1)" /><ellipse cx="249.7" cy="195.9" rx="5" ry="1.8" fill="#d9d1b7" stroke="#d9d1b7" stroke-width="0.3" transform="rotate(0 249.7 195.9)" /><ellipse cx="217.0" cy="245.3" rx="5" ry="1.8" fill="#d9d1b7" stroke="#d9d1b7" stroke-width="0.3" transform="rotate(62 217.0 245.3)" /><ellipse cx="222.5" cy="282.7" rx="5" ry="1.8" fill="#d9d1b7" stroke="#d9d1b7" stroke-width="0.3" transform="rotate(133 222.5 282.7)" /><ellipse cx="319.1" cy="194.5" rx="5" ry="1.8" fill="#d9d1b7" stroke="#d9d1b7" stroke-width="0.3" transform="rotate(167 319.1 194.5)" /><ellipse cx="367.9" cy="279.3" rx="5" ry="1.8" fill="#d9d1b7" stroke="#d9d1b7" stroke-width="0.3" transform="rotate(124 367.9 279.3)" /><ellipse cx="299.8" cy="185.7" rx="5" ry="1.8" fill="#d9d1b7" stroke="#d9d1b7" stroke-width="0.3" transform="rotate(164 299.8 185.7)" /><ellipse cx="296.5" cy="175.1" rx="5" ry="1.8" fill="#d9d1b7" stroke="#d9d1b7" stroke-width="0.3" transform="rotate(53 296.5 175.1)" /><ellipse cx="264.8" cy="216.6" rx="5" ry="1.8" fill="#d9d1b7" stroke="#d9d1b7" stroke-width="0.3" transform="rotate(165 264.8 216.6)" /><ellipse cx="243.5" cy="136.2" rx="5" ry="1.8" fill="#d9d1b7" stroke="#d9d1b7" stroke-width="0.3" transform="rotate(69 243.5 136.2)" /><ellipse cx="316.8" cy="206.3" rx="5" ry="1.8" fill="#d9d1b7" stroke="#d9d1b7" stroke-width="0.3" transform="rotate(7 316.8 206.3)" /><ellipse cx="380.7" cy="291.1" rx="5" ry="1.8" fill="#d9d1b7" stroke="#d9d1b7" stroke-width="0.3" transform="rotate(10 380.7 291.1)" /><ellipse cx="168.1" cy="159.3" rx="5" ry="1.8" fill="#d9d1b7" stroke="#d9d1b7" stroke-width="0.3" transform="rotate(155 168.1 159.3)" /><ellipse cx="194.5" cy="192.6" rx="5" ry="1.8" fill="#d9d1b7" stroke="#d9d1b7" stroke-width="0.3" transform="rotate(87 194.5 192.6)" /><ellipse cx="170.5" cy="213.3" rx="5" ry="1.8" fill="#d9d1b7" stroke="#d9d1b7" stroke-width="0.3" transform="rotate(19 170.5 213.3)" /><ellipse cx="394.3" cy="245.1" rx="5" ry="1.8" fill="#d9d1b7" stroke="#d9d1b7" stroke-width="0.3" transform="rotate(37 394.3 245.1)" /><ellipse cx="269.4" cy="152.5" rx="5" ry="1.8" fill="#d9d1b7" stroke="#d9d1b7" stroke-width="0.3" transform="rotate(33 269.4 152.5)" /><ellipse cx="322.7" cy="155.9" rx="5" ry="1.8" fill="#d9d1b7" stroke="#d9d1b7" stroke-width="0.3" transform="rotate(68 322.7 155.9)" /><ellipse cx="306.5" cy="203.3" rx="5" ry="1.8" fill="#d9d1b7" stroke="#d9d1b7" stroke-width="0.3" transform="rotate(89 306.5 203.3)" /><ellipse cx="212.7" cy="188.9" rx="5" ry="1.8" fill="#d9d1b7" stroke="#d9d1b7" stroke-width="0.3" transform="rotate(144 212.7 188.9)" /><ellipse cx="433.2" cy="166.4" rx="5" ry="1.8" fill="#d9d1b7" stroke="#d9d1b7" stroke-width="0.3" transform="rotate(104 433.2 166.4)" /><ellipse cx="266.0" cy="149.0" rx="5" ry="1.8" fill="#d9d1b7" stroke="#d9d1b7" stroke-width="0.3" transform="rotate(31 266.0 149.0)" /><ellipse cx="463.2" cy="249.9" rx="5" ry="1.8" fill="#d9d1b7" stroke="#d9d1b7" stroke-width="0.3" transform="rotate(19 463.2 249.9)" /><ellipse cx="483.6" cy="212.9" rx="5" ry="1.8" fill="#d9d1b7" stroke="#d9d1b7" stroke-width="0.3" transform="rotate(76 483.6 212.9)" /><ellipse cx="185.2" cy="201.8" rx="5" ry="1.8" fill="#d9d1b7" stroke="#d9d1b7" stroke-width="0.3" transform="rotate(74 185.2 201.8)" /><ellipse cx="270.4" cy="292.2" rx="5" ry="1.8" fill="#d9d1b7" stroke="#d9d1b7" stroke-width="0.3" transform="rotate(52 270.4 292.2)" /><ellipse cx="325.5" cy="292.8" rx="5" ry="1.8" fill="#d9d1b7" stroke="#d9d1b7" stroke-width="0.3" transform="rotate(168 325.5 292.8)" /><ellipse cx="202.6" cy="247.3" rx="5" ry="1.8" fill="#d9d1b7" stroke="#d9d1b7" stroke-width="0.3" transform="rotate(88 202.6 247.3)" /><ellipse cx="288.7" cy="200.4" rx="5" ry="1.8" fill="#d9d1b7" stroke="#d9d1b7" stroke-width="0.3" transform="rotate(126 288.7 200.4)" /><ellipse cx="454.8" cy="199.8" rx="5" ry="1.8" fill="#d9d1b7" stroke="#d9d1b7" stroke-width="0.3" transform="rotate(111 454.8 199.8)" /><ellipse cx="324.6" cy="288.3" rx="5" ry="1.8" fill="#d9d1b7" stroke="#d9d1b7" stroke-width="0.3" transform="rotate(150 324.6 288.3)" /><ellipse cx="344.8" cy="255.1" rx="5" ry="1.8" fill="#d9d1b7" stroke="#d9d1b7" stroke-width="0.3" transform="rotate(35 344.8 255.1)" /><ellipse cx="235.2" cy="185.5" rx="5" ry="1.8" fill="#d9d1b7" stroke="#d9d1b7" stroke-width="0.3" transform="rotate(58 235.2 185.5)" /><ellipse cx="177.7" cy="203.4" rx="5" ry="1.8" fill="#d9d1b7" stroke="#d9d1b7" stroke-width="0.3" transform="rotate(25 177.7 203.4)" /><ellipse cx="209.4" cy="269.3" rx="5" ry="1.8" fill="#d9d1b7" stroke="#d9d1b7" stroke-width="0.3" transform="rotate(142 209.4 269.3)" /><ellipse cx="393.2" cy="256.8" rx="5" ry="1.8" fill="#d9d1b7" stroke="#d9d1b7" stroke-width="0.3" transform="rotate(35 393.2 256.8)" /><ellipse cx="432.5" cy="221.6" rx="5" ry="1.8" fill="#d9d1b7" stroke="#d9d1b7" stroke-width="0.3" transform="rotate(179 432.5 221.6)" /><ellipse cx="267.4" cy="295.0" rx="5" ry="1.8" fill="#d9d1b7" stroke="#d9d1b7" stroke-width="0.3" transform="rotate(158 267.4 295.0)" /><ellipse cx="176.0" cy="204.7" rx="5" ry="1.8" fill="#d9d1b7" stroke="#d9d1b7" stroke-width="0.3" transform="rotate(82 176.0 204.7)" /><ellipse cx="417.6" cy="194.0" rx="5" ry="1.8" fill="#d9d1b7" stroke="#d9d1b7" stroke-width="0.3" transform="rotate(150 417.6 194.0)" /><ellipse cx="396.6" cy="240.5" rx="5" ry="1.8" fill="#d9d1b7" stroke="#d9d1b7" stroke-width="0.3" transform="rotate(82 396.6 240.5)" /><ellipse cx="425.2" cy="230.1" rx="5" ry="1.8" fill="#d9d1b7" stroke="#d9d1b7" stroke-width="0.3" transform="rotate(135 425.2 230.1)" /><ellipse cx="320.1" cy="179.5" rx="5" ry="1.8" fill="#d9d1b7" stroke="#d9d1b7" stroke-width="0.3" transform="rotate(60 320.1 179.5)" /><ellipse cx="270.6" cy="113.7" rx="5" ry="1.8" fill="#d9d1b7" stroke="#d9d1b7" stroke-width="0.3" transform="rotate(55 270.6 113.7)" /><ellipse cx="380.9" cy="114.8" rx="5" ry="1.8" fill="#d9d1b7" stroke="#d9d1b7" stroke-width="0.3" transform="rotate(76 380.9 114.8)" /><ellipse cx="216.4" cy="215.1" rx="5" ry="1.8" fill="#d9d1b7" stroke="#d9d1b7" stroke-width="0.3" transform="rotate(1 216.4 215.1)" /><ellipse cx="353.8" cy="144.4" rx="5" ry="1.8" fill="#d9d1b7" stroke="#d9d1b7" stroke-width="0.3" transform="rotate(8 353.8 144.4)" /><ellipse cx="433.6" cy="183.3" rx="5" ry="1.8" fill="#d9d1b7" stroke="#d9d1b7" stroke-width="0.3" transform="rotate(26 433.6 183.3)" /><ellipse cx="368.3" cy="248.6" rx="5" ry="1.8" fill="#d9d1b7" stroke="#d9d1b7" stroke-width="0.3" transform="rotate(40 368.3 248.6)" /><ellipse cx="446.0" cy="171.8" rx="5" ry="1.8" fill="#d9d1b7" stroke="#d9d1b7" stroke-width="0.3" transform="rotate(54 446.0 171.8)" /><ellipse cx="417.6" cy="128.9" rx="5" ry="1.8" fill="#d9d1b7" stroke="#d9d1b7" stroke-width="0.3" transform="rotate(179 417.6 128.9)" /><ellipse cx="248.9" cy="164.2" rx="5" ry="1.8" fill="#d9d1b7" stroke="#d9d1b7" stroke-width="0.3" transform="rotate(91 248.9 164.2)" /><ellipse cx="378.0" cy="203.0" rx="5" ry="1.8" fill="#d9d1b7" stroke="#d9d1b7" stroke-width="0.3" transform="rotate(134 378.0 203.0)" /><ellipse cx="282.9" cy="297.5" rx="5" ry="1.8" fill="#d9d1b7" stroke="#d9d1b7" stroke-width="0.3" transform="rotate(53 282.9 297.5)" /><ellipse cx="275.3" cy="158.9" rx="5" ry="1.8" fill="#d9d1b7" stroke="#d9d1b7" stroke-width="0.3" transform="rotate(174 275.3 158.9)" /><ellipse cx="343.3" cy="284.8" rx="5" ry="1.8" fill="#d9d1b7" stroke="#d9d1b7" stroke-width="0.3" transform="rotate(123 343.3 284.8)" /><ellipse cx="298.6" cy="198.7" rx="5" ry="1.8" fill="#d9d1b7" stroke="#d9d1b7" stroke-width="0.3" transform="rotate(17 298.6 198.7)" /><ellipse cx="383.4" cy="241.6" rx="5" ry="1.8" fill="#d9d1b7" stroke="#d9d1b7" stroke-width="0.3" transform="rotate(52 383.4 241.6)" /><ellipse cx="289.1" cy="150.9" rx="5" ry="1.8" fill="#d9d1b7" stroke="#d9d1b7" stroke-width="0.3" transform="rotate(125 289.1 150.9)" /><ellipse cx="234.8" cy="152.2" rx="5" ry="1.8" fill="#d9d1b7" stroke="#d9d1b7" stroke-width="0.3" transform="rotate(42 234.8 152.2)" /><ellipse cx="268.3" cy="131.5" rx="5" ry="1.8" fill="#d9d1b7" stroke="#d9d1b7" stroke-width="0.3" transform="rotate(99 268.3 131.5)" /><ellipse cx="170.8" cy="248.0" rx="5" ry="1.8" fill="#d9d1b7" stroke="#d9d1b7" stroke-width="0.3" transform="rotate(145 170.8 248.0)" /><ellipse cx="233.0" cy="131.2" rx="5" ry="1.8" fill="#d9d1b7" stroke="#d9d1b7" stroke-width="0.3" transform="rotate(85 233.0 131.2)" /><ellipse cx="296.8" cy="291.5" rx="5" ry="1.8" fill="#d9d1b7" stroke="#d9d1b7" stroke-width="0.3" transform="rotate(165 296.8 291.5)" /><ellipse cx="235.8" cy="162.7" rx="5" ry="1.8" fill="#d9d1b7" stroke="#d9d1b7" stroke-width="0.3" transform="rotate(116 235.8 162.7)" /><ellipse cx="164.2" cy="234.4" rx="5" ry="1.8" fill="#d9d1b7" stroke="#d9d1b7" stroke-width="0.3" transform="rotate(51 164.2 234.4)" /><ellipse cx="334.7" cy="193.2" rx="5" ry="1.8" fill="#d9d1b7" stroke="#d9d1b7" stroke-width="0.3" transform="rotate(8 334.7 193.2)" /><ellipse cx="189.4" cy="256.4" rx="5" ry="1.8" fill="#d9d1b7" stroke="#d9d1b7" stroke-width="0.3" transform="rotate(65 189.4 256.4)" /><ellipse cx="374.2" cy="270.0" rx="5" ry="1.8" fill="#d9d1b7" stroke="#d9d1b7" stroke-width="0.3" transform="rotate(102 374.2 270.0)" /><ellipse cx="382.5" cy="289.2" rx="5" ry="1.8" fill="#d9d1b7" stroke="#d9d1b7" stroke-width="0.3" transform="rotate(31 382.5 289.2)" /><ellipse cx="304.6" cy="218.9" rx="5" ry="1.8" fill="#d9d1b7" stroke="#d9d1b7" stroke-width="0.3" transform="rotate(120 304.6 218.9)" /><ellipse cx="228.6" cy="163.8" rx="5" ry="1.8" fill="#d9d1b7" stroke="#d9d1b7" stroke-width="0.3" transform="rotate(162 228.6 163.8)" /><ellipse cx="367.1" cy="191.4" rx="5" ry="1.8" fill="#d9d1b7" stroke="#d9d1b7" stroke-width="0.3" transform="rotate(93 367.1 191.4)" /><ellipse cx="274.2" cy="190.1" rx="5" ry="1.8" fill="#d9d1b7" stroke="#d9d1b7" stroke-width="0.3" transform="rotate(46 274.2 190.1)" /><ellipse cx="289.2" cy="167.2" rx="5" ry="1.8" fill="#d9d1b7" stroke="#d9d1b7" stroke-width="0.3" transform="rotate(18 289.2 167.2)" /><ellipse cx="422.5" cy="150.4" rx="5" ry="1.8" fill="#d9d1b7" stroke="#d9d1b7" stroke-width="0.3" transform="rotate(16 422.5 150.4)" /><ellipse cx="229.0" cy="124.1" rx="5" ry="1.8" fill="#d9d1b7" stroke="#d9d1b7" stroke-width="0.3" transform="rotate(48 229.0 124.1)" /><ellipse cx="333.4" cy="175.7" rx="5" ry="1.8" fill="#d9d1b7" stroke="#d9d1b7" stroke-width="0.3" transform="rotate(106 333.4 175.7)" /><ellipse cx="272.5" cy="132.2" rx="5" ry="1.8" fill="#d9d1b7" stroke="#d9d1b7" stroke-width="0.3" transform="rotate(166 272.5 132.2)" /><ellipse cx="379.7" cy="265.1" rx="5" ry="1.8" fill="#d9d1b7" stroke="#d9d1b7" stroke-width="0.3" transform="rotate(110 379.7 265.1)" /><ellipse cx="356.9" cy="183.6" rx="5" ry="1.8" fill="#d9d1b7" stroke="#d9d1b7" stroke-width="0.3" transform="rotate(56 356.9 183.6)" /><ellipse cx="229.6" cy="190.6" rx="5" ry="1.8" fill="#d9d1b7" stroke="#d9d1b7" stroke-width="0.3" transform="rotate(2 229.6 190.6)" /><ellipse cx="178.8" cy="235.9" rx="5" ry="1.8" fill="#d9d1b7" stroke="#d9d1b7" stroke-width="0.3" transform="rotate(50 178.8 235.9)" /><ellipse cx="188.8" cy="234.1" rx="5" ry="1.8" fill="#d9d1b7" stroke="#d9d1b7" stroke-width="0.3" transform="rotate(21 188.8 234.1)" /><ellipse cx="363.7" cy="266.1" rx="5" ry="1.8" fill="#d9d1b7" stroke="#d9d1b7" stroke-width="0.3" transform="rotate(151 363.7 266.1)" /><ellipse cx="209.7" cy="173.2" rx="5" ry="1.8" fill="#d9d1b7" stroke="#d9d1b7" stroke-width="0.3" transform="rotate(51 209.7 173.2)" /><ellipse cx="243.6" cy="219.0" rx="5" ry="1.8" fill="#d9d1b7" stroke="#d9d1b7" stroke-width="0.3" transform="rotate(99 243.6 219.0)" /><ellipse cx="389.3" cy="128.4" rx="5" ry="1.8" fill="#d9d1b7" stroke="#d9d1b7" stroke-width="0.3" transform="rotate(122 389.3 128.4)" /><ellipse cx="352.6" cy="225.3" rx="5" ry="1.8" fill="#d9d1b7" stroke="#d9d1b7" stroke-width="0.3" transform="rotate(167 352.6 225.3)" /><ellipse cx="350.2" cy="195.0" rx="5" ry="1.8" fill="#d9d1b7" stroke="#d9d1b7" stroke-width="0.3" transform="rotate(109 350.2 195.0)" /><ellipse cx="229.2" cy="232.2" rx="5" ry="1.8" fill="#d9d1b7" stroke="#d9d1b7" stroke-width="0.3" transform="rotate(95 229.2 232.2)" /><ellipse cx="358.8" cy="284.3" rx="5" ry="1.8" fill="#d9d1b7" stroke="#d9d1b7" stroke-width="0.3" transform="rotate(86 358.8 284.3)" /><ellipse cx="250.8" cy="261.1" rx="5" ry="1.8" fill="#d9d1b7" stroke="#d9d1b7" stroke-width="0.3" transform="rotate(29 250.8 261.1)" /><ellipse cx="459.3" cy="179.1" rx="5" ry="1.8" fill="#d9d1b7" stroke="#d9d1b7" stroke-width="0.3" transform="rotate(30 459.3 179.1)" /><ellipse cx="395.7" cy="272.1" rx="5" ry="1.8" fill="#d9d1b7" stroke="#d9d1b7" stroke-width="0.3" transform="rotate(71 395.7 272.1)" /><ellipse cx="182.3" cy="222.4" rx="5" ry="1.8" fill="#d9d1b7" stroke="#d9d1b7" stroke-width="0.3" transform="rotate(91 182.3 222.4)" /><ellipse cx="401.3" cy="139.2" rx="5" ry="1.8" fill="#d9d1b7" stroke="#d9d1b7" stroke-width="0.3" transform="rotate(130 401.3 139.2)" /><ellipse cx="308.5" cy="163.0" rx="5" ry="1.8" fill="#d9d1b7" stroke="#d9d1b7" stroke-width="0.3" transform="rotate(162 308.5 163.0)" /><ellipse cx="316.8" cy="280.8" rx="5" ry="1.8" fill="#d9d1b7" stroke="#d9d1b7" stroke-width="0.3" transform="rotate(93 316.8 280.8)" /><ellipse cx="383.9" cy="281.0" rx="5" ry="1.8" fill="#d9d1b7" stroke="#d9d1b7" stroke-width="0.3" transform="rotate(151 383.9 281.0)" /><ellipse cx="324.1" cy="133.6" rx="5" ry="1.8" fill="#d9d1b7" stroke="#d9d1b7" stroke-width="0.3" transform="rotate(9 324.1 133.6)" /><ellipse cx="361" cy="159" rx="5" ry="5" fill="#82916a" stroke="#a6b187" stroke-width="1" /><rect x="229" y="220" width="9" height="8" rx="1" fill="#ad684a" /><path d="M276 145l10 -4 7 5 -3 7 -13 1Z" fill="#dcc481" stroke="#cfbb86" stroke-width="1" stroke-linecap="round" stroke-linejoin="round" /><ellipse cx="266" cy="157" rx="5" ry="5" fill="#82916a" stroke="#a6b187" stroke-width="1" /><rect x="406" y="153" width="9" height="8" rx="1" fill="#ad684a" /><path d="M249 219l10 -4 7 5 -3 7 -13 1Z" fill="#dcc481" stroke="#cfbb86" stroke-width="1" stroke-linecap="round" stroke-linejoin="round" /><ellipse cx="351" cy="177" rx="5" ry="5" fill="#82916a" stroke="#a6b187" stroke-width="1" /><rect x="432" y="161" width="9" height="8" rx="1" fill="#ad684a" /><path d="M221 232l10 -4 7 5 -3 7 -13 1Z" fill="#dcc481" stroke="#cfbb86" stroke-width="1" stroke-linecap="round" stroke-linejoin="round" /><ellipse cx="270" cy="259" rx="5" ry="5" fill="#82916a" stroke="#a6b187" stroke-width="1" /><rect x="365" y="239" width="9" height="8" rx="1" fill="#ad684a" /><path d="M307 185l10 -4 7 5 -3 7 -13 1Z" fill="#dcc481" stroke="#cfbb86" stroke-width="1" stroke-linecap="round" stroke-linejoin="round" /><ellipse cx="336" cy="211" rx="5" ry="5" fill="#82916a" stroke="#a6b187" stroke-width="1" /><rect x="318" y="177" width="9" height="8" rx="1" fill="#ad684a" /><path d="M238 254l10 -4 7 5 -3 7 -13 1Z" fill="#dcc481" stroke="#cfbb86" stroke-width="1" stroke-linecap="round" stroke-linejoin="round" /><ellipse cx="289" cy="196" rx="5" ry="5" fill="#82916a" stroke="#a6b187" stroke-width="1" /><rect x="243" y="214" width="9" height="8" rx="1" fill="#ad684a" /><path d="M295 222l10 -4 7 5 -3 7 -13 1Z" fill="#dcc481" stroke="#cfbb86" stroke-width="1" stroke-linecap="round" stroke-linejoin="round" /><ellipse cx="339" cy="177" rx="5" ry="5" fill="#82916a" stroke="#a6b187" stroke-width="1" /><rect x="243" y="150" width="9" height="8" rx="1" fill="#ad684a" /><path d="M362 211l10 -4 7 5 -3 7 -13 1Z" fill="#dcc481" stroke="#cfbb86" stroke-width="1" stroke-linecap="round" stroke-linejoin="round" /><ellipse cx="361" cy="202" rx="5" ry="5" fill="#82916a" stroke="#a6b187" stroke-width="1" /><rect x="340" y="246" width="9" height="8" rx="1" fill="#ad684a" /><path d="M415 244l10 -4 7 5 -3 7 -13 1Z" fill="#dcc481" stroke="#cfbb86" stroke-width="1" stroke-linecap="round" stroke-linejoin="round" /><ellipse cx="255" cy="188" rx="5" ry="5" fill="#82916a" stroke="#a6b187" stroke-width="1" /><rect x="261" y="212" width="9" height="8" rx="1" fill="#ad684a" /><path d="M316 200l10 -4 7 5 -3 7 -13 1Z" fill="#dcc481" stroke="#cfbb86" stroke-width="1" stroke-linecap="round" stroke-linejoin="round" /><ellipse cx="273" cy="220" rx="5" ry="5" fill="#82916a" stroke="#a6b187" stroke-width="1" /><rect x="355" y="205" width="9" height="8" rx="1" fill="#ad684a" /><path d="M223 180l10 -4 7 5 -3 7 -13 1Z" fill="#dcc481" stroke="#cfbb86" stroke-width="1" stroke-linecap="round" stroke-linejoin="round" /><ellipse cx="240" cy="160" rx="7" ry="4" fill="none" stroke="#82916a" stroke-width="2" /><ellipse cx="362" cy="170" rx="7" ry="4" fill="none" stroke="#82916a" stroke-width="2" /><ellipse cx="310" cy="247" rx="7" ry="4" fill="none" stroke="#82916a" stroke-width="2" /><ellipse cx="416" cy="221" rx="7" ry="4" fill="none" stroke="#82916a" stroke-width="2" /></g>
</g></svg>